<svg width="38" height="36" viewBox="0 0 38 36" fill="none" xmlns="http://www.w3.org/2000/svg">
<path d="M0.59375 16.0666H2.96875L3.23445 15.3809C3.33307 15.1262 3.48466 14.912 3.67225 14.7623C3.85983 14.6126 4.076 14.5333 4.29652 14.5333H6.28633L7.29867 13.2261C7.67311 12.7431 8.3125 13.0852 8.3125 13.768V20.9479L3.5625 23.1382V21.4333H2.375C1.06318 21.4333 0 20.0605 0 18.3666V16.8333C0 16.4097 0.265703 16.0666 0.59375 16.0666ZM4.75 18.3666C5.07805 18.3666 5.34375 18.0235 5.34375 17.5999C5.34375 17.1764 5.07805 16.8333 4.75 16.8333C4.42195 16.8333 4.15625 17.1764 4.15625 17.5999C4.15625 18.0235 4.42195 18.3666 4.75 18.3666ZM15.4375 22.2C16.0921 22.2 16.625 21.5119 16.625 20.6666C16.625 19.8199 17.1568 19.1333 17.8125 19.1333C18.4682 19.1333 19 19.8199 19 20.6666C19 22.6628 18.0044 24.349 16.625 24.9839V35.2333C16.625 35.6569 16.3593 36 16.0312 36H13.6562C13.3282 36 13.0625 35.6569 13.0625 35.2333V29.8666H7.125V35.2333C7.125 35.6569 6.8593 36 6.53125 36H4.15625C3.8282 36 3.5625 35.6569 3.5625 35.2333V24.7659L9.12705 22.2H15.4375Z" fill="black"/>
<path d="M29.7836 21.3333C29.0347 21.3333 25.8196 21.4241 23.75 25.2727V21.3333C23.75 18.9069 22.1521 16.9333 20.1875 16.9333C19.5318 16.9333 19 17.5901 19 18.4C19 19.2099 19.5318 19.8667 20.1875 19.8667C20.8421 19.8667 21.375 20.5248 21.375 21.3333V33.0667C21.375 34.6846 22.44 36 23.75 36H30.2812C30.6093 36 30.875 35.6718 30.875 35.2667V34.5333C30.875 33.7235 30.3432 33.0667 29.6875 33.0667H28.5L33.25 28.6667V35.2667C33.25 35.6718 33.5157 36 33.8438 36H35.0312C35.3593 36 35.625 35.6718 35.625 35.2667V25.8186C35.2431 25.941 34.8498 26.0267 34.4375 26.0267C32.1438 26.0267 30.2248 24.0077 29.7836 21.3333ZM35.625 16.9333H33.25L30.875 14V20.16C30.875 22.5901 32.47 24.56 34.4375 24.56C36.405 24.56 38 22.5901 38 20.16V14L35.625 16.9333ZM32.9531 20.6C32.6251 20.6 32.3594 20.2718 32.3594 19.8667C32.3594 19.4615 32.6251 19.1333 32.9531 19.1333C33.2812 19.1333 33.5469 19.4615 33.5469 19.8667C33.5469 20.2718 33.2812 20.6 32.9531 20.6ZM35.9219 20.6C35.5938 20.6 35.3281 20.2718 35.3281 19.8667C35.3281 19.4615 35.5938 19.1333 35.9219 19.1333C36.2499 19.1333 36.5156 19.4615 36.5156 19.8667C36.5156 20.2718 36.2499 20.6 35.9219 20.6Z" fill="black"/>
<path d="M19.3276 3.37254L15.1668 7.77939V12.5357C15.1668 12.6588 15.2049 12.7769 15.2726 12.864C15.3403 12.9511 15.4322 13 15.5279 13L18.0569 12.9916C18.1523 12.991 18.2437 12.9418 18.311 12.8548C18.3783 12.7678 18.4161 12.65 18.4161 12.5272V9.74964C18.4161 9.62649 18.4542 9.50838 18.5219 9.4213C18.5896 9.33422 18.6815 9.2853 18.7772 9.2853H20.2216C20.3173 9.2853 20.4092 9.33422 20.4769 9.4213C20.5446 9.50838 20.5826 9.62649 20.5826 9.74964V12.5252C20.5825 12.5863 20.5917 12.6469 20.6098 12.7034C20.6279 12.7599 20.6545 12.8112 20.688 12.8545C20.7215 12.8978 20.7614 12.9321 20.8053 12.9555C20.8492 12.9789 20.8962 12.991 20.9437 12.991L23.4718 13C23.5675 13 23.6594 12.9511 23.7271 12.864C23.7948 12.7769 23.8328 12.6588 23.8328 12.5357V7.7762L19.6729 3.37254C19.624 3.32185 19.5631 3.29421 19.5003 3.29421C19.4375 3.29421 19.3766 3.32185 19.3276 3.37254V3.37254ZM25.9 6.36781L24.0134 4.36796V0.348253C24.0134 0.255891 23.9848 0.167311 23.9341 0.102001C23.8833 0.0366909 23.8144 0 23.7426 0H22.4788C22.407 0 22.3381 0.0366909 22.2873 0.102001C22.2365 0.167311 22.208 0.255891 22.208 0.348253V2.45547L20.1875 0.317781C19.9936 0.112596 19.7503 0.000410168 19.4992 0.000410168C19.2481 0.000410168 19.0047 0.112596 18.8108 0.317781L13.0983 6.36781C13.0709 6.39696 13.0482 6.43277 13.0315 6.47319C13.0149 6.51362 13.0046 6.55787 13.0012 6.60342C12.9979 6.64896 13.0015 6.69491 13.012 6.73864C13.0224 6.78237 13.0395 6.82302 13.0622 6.85827L13.6377 7.75792C13.6603 7.79329 13.6881 7.82258 13.7195 7.8441C13.751 7.86562 13.7854 7.87897 13.8208 7.88336C13.8563 7.88775 13.8921 7.88311 13.9261 7.86971C13.9602 7.8563 13.9918 7.83439 14.0193 7.80522L19.3276 2.18268C19.3766 2.13198 19.4375 2.10434 19.5003 2.10434C19.5631 2.10434 19.624 2.13198 19.6729 2.18268L24.9815 7.80522C25.0089 7.83439 25.0406 7.85633 25.0746 7.86978C25.1086 7.88323 25.1443 7.88794 25.1797 7.88363C25.2151 7.87931 25.2495 7.86607 25.281 7.84465C25.3124 7.82323 25.3403 7.79405 25.3629 7.75879L25.9384 6.85914C25.9611 6.82369 25.978 6.78283 25.9884 6.73891C25.9987 6.69499 26.0022 6.64887 25.9986 6.60322C25.9951 6.55756 25.9845 6.51326 25.9676 6.47286C25.9507 6.43246 25.9277 6.39676 25.9 6.36781V6.36781Z" fill="#134C5F"/>
</svg>
