<svg width="362" height="243" viewBox="0 0 362 243" fill="none" xmlns="http://www.w3.org/2000/svg">
<path d="M71.3164 14.7266V65H67.625V14.7266H71.3164ZM105.805 14.7266L81.8633 38.5273L106.648 65H101.129L78.1719 39.7578V37.5781L100.742 14.7266H105.805ZM118.777 14.7266V65H115.086V14.7266H118.777ZM131.82 65V14.7266H136.566L170.141 58.7422V14.7266H173.48V65H170.492L135.16 18.875V65H131.82ZM202.344 61.8359C216.289 61.8359 223.262 54.0547 223.262 38.4922C223.262 24.7578 216.289 17.8906 202.344 17.8906H188.457V61.8359H202.344ZM184.766 65V14.7266H202.695C219.102 14.7266 227.305 22.6484 227.305 38.4922C227.305 56.1641 218.984 65 202.344 65H184.766Z" fill="#F4C004"/>
<path d="M208.591 80.5791V82.5566H197.825V112H195.518V82.5566H184.971V80.5791H208.591ZM213.777 96.2017C213.777 105.562 218.193 110.242 227.026 110.242C235.698 110.242 240.034 105.562 240.034 96.2017C240.034 86.9585 235.698 82.3369 227.026 82.3369C218.193 82.3369 213.777 86.9585 213.777 96.2017ZM211.25 96.3335C211.25 85.6841 216.509 80.3594 227.026 80.3594C237.383 80.3594 242.561 85.6841 242.561 96.3335C242.561 106.924 237.383 112.22 227.026 112.22C216.509 112.22 211.25 106.924 211.25 96.3335ZM126.897 130.579V132.557H108.572V145.081H126.15V147.059H108.572V160.022H127.205V162H106.265V130.579H126.897ZM162.185 130.579L148.408 162H144.783L130.94 130.579H133.467L146.672 160.22L159.724 130.579H162.185ZM187.102 130.579V132.557H168.777V145.081H186.355V147.059H168.777V160.022H187.41V162H166.47V130.579H187.102ZM193.892 162V130.579H206.855C212.539 130.579 215.381 133.091 215.381 138.116C215.381 142.466 212.297 145.55 206.13 147.366L216.743 162H213.579L203.142 147.432V145.872C209.587 144.92 212.81 142.393 212.81 138.292C212.81 134.512 210.701 132.623 206.482 132.623H196.199V162H193.892ZM218.303 130.579H221.05L231.223 148.816L241.704 130.579H244.231L232.454 151.014V162H230.146V151.014L218.303 130.579Z" fill="black"/>
<path d="M202.496 176.727V227H198.805V176.727H202.496ZM236.984 176.727L213.043 200.527L237.828 227H232.309L209.352 201.758V199.578L231.922 176.727H236.984ZM249.957 176.727V227H246.266V176.727H249.957ZM263 227V176.727H267.746L301.32 220.742V176.727H304.66V227H301.672L266.34 180.875V227H263ZM333.523 223.836C347.469 223.836 354.441 216.055 354.441 200.492C354.441 186.758 347.469 179.891 333.523 179.891H319.637V223.836H333.523ZM315.945 227V176.727H333.875C350.281 176.727 358.484 184.648 358.484 200.492C358.484 218.164 350.164 227 333.523 227H315.945Z" fill="#F4C004"/>
<path d="M3.51562 48V16.5791H16.9189C22.8955 16.5791 25.8838 19.0181 25.8838 23.896C25.8838 27.4702 23.7158 30.0264 19.3799 31.5645C23.9795 32.3408 26.2793 34.7944 26.2793 38.9253C26.2793 44.9751 23.0054 48 16.4575 48H3.51562ZM16.2158 46.0225C21.2842 46.0225 23.8184 43.6787 23.8184 38.9912C23.8184 34.8457 20.647 32.7729 14.3042 32.7729H12.5464V31.2129C19.8706 30.5537 23.5327 28.166 23.5327 24.0498C23.5327 20.3877 21.2769 18.5566 16.7651 18.5566H5.82275V46.0225H16.2158ZM53.3716 16.5791V18.5566H35.0464V31.0811H52.6245V33.0586H35.0464V46.0225H53.6792V48H32.7393V16.5791H53.3716Z" fill="black"/>
</svg>
